<svg width="11" height="16" fill="none" xmlns="http://www.w3.org/2000/svg"><path d="M3.92 15.2c-.73 0-1.43-.07-2.1-.2-.67-.13-1.22-.33-1.68-.58v-2.9c.56.33 1.16.58 1.78.74.64.16 1.27.24 1.88.24.87 0 1.57-.16 2.12-.48.56-.33.84-.86.84-1.58 0-.31-.07-.57-.22-.8-.14-.23-.41-.4-.78-.52-.37-.13-.91-.2-1.62-.2h-1.1l.48-2.46h.74c.59 0 1.13-.06 1.62-.2.51-.15.91-.36 1.2-.66.31-.3.46-.7.46-1.16 0-.32-.11-.6-.34-.84-.23-.24-.6-.36-1.12-.36-.52 0-1.01.09-1.46.28-.45.18-.87.39-1.26.62l-1.38-2.2c.65-.43 1.34-.77 2.06-1.02.73-.27 1.64-.4 2.72-.4 1.29 0 2.3.31 3.02.92.73.61 1.1 1.41 1.1 2.4 0 1.01-.31 1.85-.92 2.5-.61.64-1.45 1.06-2.5 1.26v.08c.8.15 1.44.49 1.92 1.02.48.52.72 1.2.72 2.04 0 .88-.25 1.66-.74 2.34-.49.67-1.21 1.19-2.14 1.56-.92.37-2.02.56-3.3.56z" fill="#fff"/></svg>