<svg version="1.0" xmlns="http://www.w3.org/2000/svg"
     width="584.000000pt" height="599.000000pt" viewBox="0 0 584.000000 599.000000"
     preserveAspectRatio="xMidYMid meet">

    <g transform="translate(0.000000,599.000000) scale(0.100000,-0.100000)"
       fill="#98A4B7" stroke="none">
        <path d="M2740 4603 c-164 -27 -209 -36 -262 -54 -214 -73 -441 -240 -600
-439 -120 -151 -204 -388 -214 -604 -27 -555 391 -1054 990 -1184 60 -12 126
-17 251 -17 152 1 180 4 265 27 152 42 200 63 326 147 135 88 178 123 285 231
179 181 289 451 290 717 1 147 -15 245 -61 376 -95 268 -289 494 -557 648 -93
53 -335 136 -433 149 -74 9 -231 11 -280 3z m285 -153 c22 -4 63 -13 90 -19
72 -15 147 -45 253 -103 403 -217 642 -671 552 -1048 -52 -215 -143 -382 -286
-524 -160 -158 -388 -278 -584 -306 -93 -14 -273 -12 -360 4 -227 41 -483 193
-641 380 -243 287 -311 628 -189 944 42 110 151 282 238 377 131 144 398 273
627 304 74 10 233 6 300 -9z"/>
        <path d="M2790 4338 c-144 -15 -221 -49 -266 -118 -35 -53 -41 -119 -19 -196
40 -139 113 -230 223 -282 51 -24 69 -27 162 -27 90 0 111 4 148 23 94 50 169
144 208 260 52 152 -11 264 -177 317 -87 27 -172 34 -279 23z"/>
        <path d="M2085 3832 c-102 -49 -160 -181 -160 -367 0 -236 92 -349 280 -346
81 1 158 30 235 88 107 80 153 163 154 278 1 148 -60 237 -217 315 -78 39 -97
44 -170 47 -65 3 -90 0 -122 -15z"/>
        <path d="M3460 3796 c-123 -27 -252 -125 -297 -226 -81 -183 -3 -352 215 -462
80 -41 89 -43 171 -43 79 0 89 2 126 29 59 43 84 79 113 159 22 63 26 89 26
202 1 128 0 132 -32 197 -40 82 -74 112 -159 138 -74 23 -86 23 -163 6z"/>
        <path d="M2795 3636 c-55 -25 -105 -101 -105 -161 0 -84 92 -175 175 -175 115
1 200 99 180 207 -7 38 -64 107 -106 129 -35 17 -104 18 -144 0z m109 -118
c53 -48 38 -108 -25 -108 -31 0 -89 46 -89 70 0 18 48 60 69 60 11 0 31 -10
45 -22z"/>
        <path d="M2759 3223 c-107 -27 -166 -86 -240 -238 -44 -91 -51 -112 -50 -165
0 -105 49 -177 141 -210 180 -63 400 -64 513 -2 91 49 130 142 108 259 -33
182 -172 336 -321 358 -84 12 -97 12 -151 -2z"/>
        <path d="M4824 3965 c-85 -15 -151 -43 -206 -87 -55 -44 -130 -160 -158 -246
-21 -66 -22 -84 -18 -239 4 -137 9 -181 27 -236 47 -143 129 -243 246 -298
101 -47 100 -47 103 48 l3 81 -43 30 c-129 90 -167 187 -168 429 0 153 58 260
174 321 45 24 62 27 146 27 80 0 102 -4 138 -23 63 -34 130 -99 160 -157 26
-49 27 -54 27 -230 0 -205 -5 -223 -92 -316 l-45 -49 6 -82 c4 -46 11 -87 15
-91 15 -15 100 35 165 97 82 78 114 141 128 254 16 129 5 351 -21 432 -56 176
-201 304 -380 336 -91 16 -115 16 -207 -1z"/>
        <path d="M775 3959 c-175 -22 -293 -106 -372 -266 -32 -65 -37 -86 -42 -171
-9 -156 3 -342 29 -421 37 -117 166 -260 258 -286 22 -6 22 -5 22 92 l0 98
-45 50 c-83 92 -89 114 -90 320 0 169 1 183 23 227 33 67 101 139 158 167 34
18 71 26 126 29 69 4 84 2 132 -22 60 -29 141 -111 172 -173 16 -32 19 -60 19
-188 0 -89 -5 -167 -13 -191 -18 -61 -68 -129 -123 -169 l-50 -36 3 -82 c3
-82 3 -82 31 -85 43 -5 116 36 182 103 117 118 155 225 155 440 0 125 -19 236
-52 305 -32 65 -151 180 -220 213 -96 45 -193 60 -303 46z"/>
        <path d="M1455 3763 c-70 -16 -111 -49 -100 -82 9 -30 29 -38 126 -45 l87 -7
11 32 c12 35 14 79 5 103 -7 19 -46 19 -129 -1z"/>
        <path d="M759 3271 l-29 -29 -1 -294 c0 -161 -3 -385 -5 -498 -2 -113 -3 -218
-3 -235 0 -48 30 -89 73 -100 44 -11 77 3 109 47 19 26 20 41 18 455 -2 600
-5 633 -60 666 -42 24 -68 21 -102 -12z"/>
        <path d="M4889 3264 c-22 -23 -24 -33 -21 -102 1 -43 4 -88 7 -101 7 -36 15
-273 19 -563 4 -258 7 -278 44 -320 28 -33 95 -20 134 26 17 19 18 38 13 216
-3 107 -8 240 -10 295 -3 55 -10 189 -15 298 -5 109 -14 206 -20 217 -32 60
-110 78 -151 34z"/>
        <path d="M4735 2586 c-122 -58 -211 -217 -217 -386 -3 -71 -2 -75 20 -78 12
-2 47 2 77 8 l54 11 16 57 c31 109 47 140 102 197 53 55 55 58 49 98 -12 73
-26 117 -39 117 -7 0 -34 -11 -62 -24z"/>
        <path d="M5144 2585 c-9 -23 4 -172 17 -192 6 -10 26 -29 44 -43 76 -57 100
-125 110 -307 8 -125 -4 -222 -32 -278 -50 -99 -154 -157 -282 -156 -91 0
-148 25 -233 101 -57 50 -58 51 -108 44 -42 -5 -51 -11 -56 -30 -9 -35 2 -67
39 -116 118 -155 380 -212 572 -124 65 29 198 137 223 180 53 89 64 143 63
303 -1 271 -40 379 -189 525 -101 100 -155 129 -168 93z"/>
        <path d="M552 2560 c-131 -66 -233 -222 -253 -387 -14 -107 -5 -306 16 -387
36 -135 115 -237 234 -300 191 -100 322 -108 487 -30 80 38 164 120 208 204
64 122 71 155 68 340 -1 91 -7 190 -13 220 -17 85 -64 164 -137 230 -66 60
-158 117 -170 106 -8 -9 -15 -153 -8 -181 3 -13 28 -44 56 -71 76 -72 85 -107
84 -304 -1 -192 -14 -244 -86 -325 -81 -91 -197 -118 -323 -75 -202 69 -261
195 -237 502 13 155 25 178 165 294 23 19 25 26 21 85 -10 126 -13 128 -112
79z"/>
        <path d="M3600 2363 c-107 -12 -301 -102 -355 -166 -38 -44 -70 -105 -79 -152
l-6 -30 95 -2 c52 -2 95 1 95 6 0 21 83 112 118 130 54 28 143 48 243 55 119
9 181 -14 265 -98 71 -72 89 -120 89 -241 0 -68 -5 -88 -28 -134 -43 -85 -86
-132 -142 -157 -65 -29 -111 -33 -259 -24 -142 8 -176 22 -250 100 l-49 51
-66 -7 c-36 -3 -69 -8 -73 -11 -31 -17 27 -129 101 -196 79 -70 194 -110 336
-115 216 -8 353 32 470 139 53 49 125 169 125 209 0 24 30 109 41 116 5 3 18
-4 28 -17 15 -19 29 -22 92 -24 156 -5 267 20 379 87 64 39 100 87 100 135 0
51 -25 58 -162 44 -62 -7 -151 -22 -197 -33 -59 -14 -100 -18 -137 -14 -40 5
-60 2 -83 -11 -39 -23 -45 -17 -101 94 -68 135 -197 238 -331 263 -50 10 -185
11 -259 3z"/>
        <path d="M2090 2313 c-62 -10 -155 -48 -211 -85 -74 -50 -127 -115 -176 -216
-32 -67 -37 -89 -41 -167 -4 -85 -2 -96 33 -190 64 -168 122 -241 235 -294 92
-43 164 -54 295 -47 205 13 334 59 431 154 51 51 97 138 92 174 -3 22 -7 23
-71 21 -94 -2 -116 -9 -123 -38 -7 -29 -62 -75 -119 -100 -62 -27 -343 -34
-415 -10 -61 20 -118 73 -149 140 -26 55 -26 88 -1 140 20 41 27 115 11 115
-19 0 -20 33 -2 68 47 91 132 142 269 162 180 27 271 4 384 -97 l59 -53 79 0
c80 0 80 0 80 27 0 42 -57 119 -128 172 -112 84 -265 132 -417 129 -49 0 -101
-3 -115 -5z"/>
        <path d="M3395 1950 c-119 -19 -390 -34 -645 -35 -151 -1 -281 -2 -287 -3 -17
-3 -43 -55 -43 -87 0 -42 29 -82 69 -93 51 -16 251 -22 346 -12 44 5 132 12
195 15 411 20 431 23 470 88 26 41 25 78 -1 111 -22 28 -26 28 -104 16z"/>
        <path d="M1395 1894 c-11 -8 -15 -31 -15 -92 0 -95 -9 -89 137 -95 l93 -3 5
30 c4 17 5 63 3 101 l-3 70 -102 0 c-59 0 -109 -5 -118 -11z"/>
    </g>
</svg>
