<svg width="20" height="19" viewBox="0 0 20 19" fill="none" xmlns="http://www.w3.org/2000/svg">
    <path fill-rule="evenodd" clip-rule="evenodd"
          d="M17.9878 4.71218C18.7455 6.07088 19.1875 7.62365 19.1875 9.43534L19.18 18.4427C19.1799 18.5779 19.0702 18.6875 18.9349 18.6875H15.2094H9.96841C8.26356 18.6875 6.68489 18.2993 5.29574 17.5229C3.90657 16.7465 2.83312 15.7113 2.01225 14.2878C1.25451 12.9291 0.8125 11.3116 0.8125 9.56466C0.8125 7.81781 1.19137 6.26495 1.9491 4.84159C2.76997 3.41813 3.84343 2.31822 5.23256 1.54181C6.6218 0.700703 8.20039 0.3125 9.96841 0.3125C11.7364 0.3125 13.3151 0.700702 14.7043 1.47712C16.0934 2.25352 17.1669 3.35343 17.9878 4.71218ZM6.325 10.4201C6.83241 10.4201 7.24375 10.0087 7.24375 9.50131C7.24375 8.9939 6.83241 8.58256 6.325 8.58256C5.81759 8.58256 5.40625 8.9939 5.40625 9.50131C5.40625 10.0087 5.81759 10.4201 6.325 10.4201ZM9.9958 10.4201C10.5032 10.4201 10.9146 10.0087 10.9146 9.50131C10.9146 8.9939 10.5032 8.58256 9.9958 8.58256C9.48839 8.58256 9.07705 8.9939 9.07705 9.50131C9.07705 10.0087 9.48839 10.4201 9.9958 10.4201ZM14.5908 9.50131C14.5908 10.0087 14.1794 10.4201 13.672 10.4201C13.1646 10.4201 12.7533 10.0087 12.7533 9.50131C12.7533 8.9939 13.1646 8.58256 13.672 8.58256C14.1794 8.58256 14.5908 8.9939 14.5908 9.50131Z"
          fill="#98A4B7"/>
</svg>
