<svg width="20" height="20" fill="none" xmlns="http://www.w3.org/2000/svg"><path d="M20 5.87c-.05-.45-.38-.8-.8-.87H.81C.35 5.08 0 5.5 0 6v8.07c0 .56.43 1.01.96 1.01h18.09c.49 0 .89-.38.95-.88V5.87z" fill="#F6C700"/><path d="M2.41 7.03H4v6.11H2.41V7.03zM7 9.84l-.23-1.55-.19-1.3H4.52v6.11h1.39l.01-4.04.58 4.04h1l.55-4.13v4.13h1.39V6.99H7.37L7 9.84zM12.06 8.26c.02.07.03.25.03.53v2.37c0 .4-.03.65-.09.74-.05.1-.19.14-.41.14V8.03c.17 0 .29.02.35.06.06.03.1.09.12.17zm.72 4.77c.19-.03.34-.11.47-.22.13-.1.22-.24.27-.43.05-.18.08-.55.08-1.1V9.14c0-.58-.02-.97-.05-1.17-.04-.19-.13-.37-.27-.53-.14-.16-.34-.28-.62-.34-.26-.08-.71-.11-1.48-.11H10v6.11h1.92c.45-.02.73-.04.86-.07zM16.17 12.12c-.03.08-.17.12-.26.12s-.16-.04-.19-.12c-.03-.07-.05-.24-.05-.52V10c0-.28.02-.46.05-.53.02-.07.08-.1.18-.1.1 0 .23.03.26.12.04.08.05.25.05.51v1.56c-.01.32-.03.51-.04.56zm-2.02.92h1.42l.1-.39c.13.15.27.28.43.35.16.08.39.12.57.12.25 0 .47-.06.65-.2.18-.12.3-.28.35-.46.05-.18.07-.46.07-.82V9.93c0-.37-.01-.61-.02-.73-.02-.11-.07-.23-.15-.34-.08-.12-.2-.21-.35-.28-.16-.06-.34-.1-.55-.1-.18 0-.42.04-.57.12-.16.06-.3.17-.43.32V6.93h-1.52v6.11z" fill="#000"/></svg>