<svg width="28" height="29" viewBox="0 0 28 29" fill="none" xmlns="http://www.w3.org/2000/svg">
<path fill-rule="evenodd" clip-rule="evenodd" d="M7.32385 5.3125C6.3701 5.3125 5.6001 6.135 5.6001 7.15V21.85C5.6001 22.865 6.3701 23.6875 7.32385 23.6875H14.8138C15.7676 23.6875 16.5376 22.865 16.5376 21.85V7.15C16.5376 6.135 15.7676 5.3125 14.8138 5.3125H7.32385ZM9.9751 12.1988C9.6601 12.0237 9.2751 12.2425 9.2751 12.61V16.53C9.2751 16.8888 9.6601 17.1163 9.9751 16.9237L13.2563 14.9638C13.5451 14.7888 13.5451 14.3512 13.2563 14.1675L9.9751 12.1988Z" fill="#98A4B7"/>
<path fill-rule="evenodd" clip-rule="evenodd" d="M19.1362 7.78906C19.6175 7.78906 20.0112 8.16531 20.0112 8.62906V20.3453C20.0112 20.8003 19.6175 21.1766 19.1362 21.1766C18.6462 21.1766 18.2612 20.8003 18.2612 20.3453V8.62906C18.2612 8.16531 18.6462 7.78906 19.1362 7.78906Z" fill="#98A4B7"/>
<path fill-rule="evenodd" clip-rule="evenodd" d="M22.6362 9.53906C23.1175 9.53906 23.5112 9.93281 23.5112 10.4141V18.5866C23.5112 19.0678 23.1175 19.4616 22.6362 19.4616C22.1462 19.4616 21.7612 19.0678 21.7612 18.5866V10.4141C21.7612 9.93281 22.1462 9.53906 22.6362 9.53906Z" fill="#98A4B7"/>
</svg>
