<svg width="20" height="14" viewBox="0 0 20 14" fill="none" xmlns="http://www.w3.org/2000/svg">
    <path fill-rule="evenodd" clip-rule="evenodd" d="M0.0590713 6.29666C0.0463175 6.14716 0.0837216 5.99413 0.172134 5.86223C0.329128 5.6313 4.07466 0.175995 9.57291 0.0234903C9.67932 0.0202191 9.78557 0.0189783 9.89161 0.0197604C13.2762 -0.00513066 16.4877 1.99842 19.446 5.88036C19.6438 6.14085 19.6623 6.48804 19.4942 6.76809C19.4175 6.89465 18.4886 8.39969 16.8927 9.90405C15.2985 11.407 13.0237 12.9235 10.2554 13.0453H10.2546C10.1379 13.0496 10.018 13.0541 9.89815 13.0541C6.52109 13.0541 3.26635 10.9429 0.213268 6.82997C0.0962048 6.67191 0.0444075 6.48263 0.0590713 6.29666ZM9.82904 12.8162C9.85205 12.8163 9.87514 12.8165 9.89815 12.8165C10.0123 12.8165 10.1273 12.8122 10.2446 12.8078C12.9245 12.6898 15.1441 11.2194 16.7193 9.73448C18.2922 8.25177 19.2078 6.76809 19.2799 6.6492C19.3446 6.54143 19.3702 6.42014 19.3581 6.30238C19.3488 6.40156 19.3173 6.49977 19.2633 6.58986C19.1153 6.83388 15.5744 12.5681 10.1261 12.8077C10.0272 12.8114 9.928 12.8151 9.82904 12.8162ZM9.95011 2.8999C9.92966 2.8996 9.90913 2.89937 9.8886 2.89937C7.90491 2.89937 6.29143 4.45059 6.29143 6.35471C6.29143 6.37442 6.29166 6.39404 6.29196 6.4136C6.32504 4.49127 7.9474 2.93163 9.95011 2.8999ZM13.4852 6.41465C13.4521 8.2714 11.8852 9.77779 9.95086 9.80953C8.06381 9.77787 6.53891 8.29238 6.53891 6.47353C6.53891 4.63498 8.09704 3.13708 10.0124 3.13708C11.9072 3.13708 13.4524 4.60309 13.4852 6.41465Z" fill="#98A4B7"/>
</svg>
